<svg width="452" height="672" viewBox="0 0 452 672" fill="none" xmlns="http://www.w3.org/2000/svg">
<g filter="url(#filter0_d_2_3)">
<path d="M2 9.99999C2 5.58171 5.58172 2 10 2H366.871C368.883 2 370.821 2.75807 372.299 4.12314L439.428 66.1244C441.068 67.6388 442 69.7693 442 72.0013V654C442 658.418 438.418 662 434 662H9.99999C5.58171 662 2 658.418 2 654V9.99999Z" fill="#DE3D2B"/>
<path d="M2 9.99999C2 5.58171 5.58172 2 10 2H366.871C368.883 2 370.821 2.75807 372.299 4.12314L439.428 66.1244C441.068 67.6388 442 69.7693 442 72.0013V654C442 658.418 438.418 662 434 662H9.99999C5.58171 662 2 658.418 2 654V9.99999Z" stroke="#9D2517" stroke-width="3"/>
</g>
<defs>
<filter id="filter0_d_2_3" x="0.5" y="0.5" width="451" height="671" filterUnits="userSpaceOnUse" color-interpolation-filters="sRGB">
<feFlood flood-opacity="0" result="BackgroundImageFix"/>
<feColorMatrix in="SourceAlpha" type="matrix" values="0 0 0 0 0 0 0 0 0 0 0 0 0 0 0 0 0 0 127 0" result="hardAlpha"/>
<feOffset dx="4" dy="4"/>
<feGaussianBlur stdDeviation="2"/>
<feComposite in2="hardAlpha" operator="out"/>
<feColorMatrix type="matrix" values="0 0 0 0 0 0 0 0 0 0 0 0 0 0 0 0 0 0 0.25 0"/>
<feBlend mode="normal" in2="BackgroundImageFix" result="effect1_dropShadow_2_3"/>
<feBlend mode="normal" in="SourceGraphic" in2="effect1_dropShadow_2_3" result="shape"/>
</filter>
</defs>
</svg>
